<svg id="settings" xmlns="http://www.w3.org/2000/svg" width="38" height="38" viewBox="0 0 38 38">
  <circle id="Oval" cx="19" cy="19" r="19" fill="#fff"/>
  <g id="Icon" transform="translate(11 11)">
    <circle id="Oval-2" data-name="Oval" cx="2.182" cy="2.182" r="2.182" transform="translate(5.818 5.818)" fill="none" stroke="#1e2022" stroke-linecap="round" stroke-linejoin="round" stroke-miterlimit="10" stroke-width="2"/>
    <path id="Path" d="M13.382,10.182a1.2,1.2,0,0,0,.24,1.324l.044.044a1.455,1.455,0,1,1-2.058,2.058l-.044-.044a1.21,1.21,0,0,0-2.051.858v.124a1.455,1.455,0,0,1-2.909,0V14.48a1.2,1.2,0,0,0-.785-1.1,1.2,1.2,0,0,0-1.324.24l-.044.044a1.455,1.455,0,1,1-2.058-2.058l.044-.044a1.21,1.21,0,0,0-.858-2.051H1.455a1.455,1.455,0,0,1,0-2.909H1.52a1.2,1.2,0,0,0,1.1-.785,1.2,1.2,0,0,0-.24-1.324l-.044-.044A1.455,1.455,0,1,1,4.393,2.393l.044.044a1.2,1.2,0,0,0,1.324.24h.058a1.2,1.2,0,0,0,.727-1.1V1.455a1.455,1.455,0,1,1,2.909,0V1.52a1.21,1.21,0,0,0,2.051.858l.044-.044a1.455,1.455,0,1,1,2.058,2.058l-.044.044a1.2,1.2,0,0,0-.24,1.324v.058a1.2,1.2,0,0,0,1.1.727h.124a1.455,1.455,0,0,1,0,2.909H14.48A1.2,1.2,0,0,0,13.382,10.182Z" fill="none" stroke="#1e2022" stroke-linecap="round" stroke-linejoin="round" stroke-miterlimit="10" stroke-width="2"/>
  </g>
</svg>
