<svg xmlns="http://www.w3.org/2000/svg" width="20" height="31" viewBox="0 0 20 31">
  <g id="active_setting" transform="translate(-327 -854)">
    <circle id="Oval" cx="3" cy="3" r="3" transform="translate(334 879)" fill="#b632e9"/>
    <g id="Icon" transform="translate(328 855)">
      <circle id="Oval-2" data-name="Oval" cx="2.455" cy="2.455" r="2.455" transform="translate(6.545 6.545)" fill="none" stroke="#b632e9" stroke-linecap="round" stroke-linejoin="round" stroke-miterlimit="10" stroke-width="2"/>
      <path id="Path" d="M15.055,11.455a1.35,1.35,0,0,0,.27,1.489l.049.049a1.637,1.637,0,1,1-2.315,2.315l-.049-.049a1.361,1.361,0,0,0-2.307.965v.139a1.636,1.636,0,1,1-3.273,0V16.29a1.35,1.35,0,0,0-.884-1.235,1.35,1.35,0,0,0-1.489.27l-.049.049a1.637,1.637,0,1,1-2.315-2.315l.049-.049A1.361,1.361,0,0,0,1.775,10.7H1.636a1.636,1.636,0,0,1,0-3.273H1.71a1.35,1.35,0,0,0,1.235-.884,1.35,1.35,0,0,0-.27-1.489l-.049-.049A1.637,1.637,0,1,1,4.942,2.692l.049.049a1.35,1.35,0,0,0,1.489.27h.065a1.35,1.35,0,0,0,.818-1.235V1.636a1.636,1.636,0,0,1,3.273,0V1.71a1.361,1.361,0,0,0,2.307.965l.049-.049a1.637,1.637,0,1,1,2.315,2.315l-.049.049a1.35,1.35,0,0,0-.27,1.489v.065a1.35,1.35,0,0,0,1.235.818h.139a1.636,1.636,0,1,1,0,3.273H16.29A1.35,1.35,0,0,0,15.055,11.455Z" fill="none" stroke="#b632e9" stroke-linecap="round" stroke-linejoin="round" stroke-miterlimit="10" stroke-width="2"/>
    </g>
  </g>
</svg>
