<svg xmlns="http://www.w3.org/2000/svg" width="35.488" height="31.961" viewBox="0 0 35.488 31.961">
  <g id="small_sunny" transform="translate(0 -0.038)">
    <circle id="Oval" cx="14.707" cy="14.707" r="14.707" transform="translate(0 0.038)" fill="#fdb441"/>
    <circle id="Oval-2" data-name="Oval" cx="11.83" cy="11.83" r="11.83" transform="translate(2.876 2.914)" fill="#fedf30"/>
    <path id="Path" d="M4.521,11.83A11.836,11.836,0,0,1,14.093.216,11.831,11.831,0,1,0,11.83,23.661a11.886,11.886,0,0,0,2.261-.217A11.833,11.833,0,0,1,4.521,11.83Z" transform="translate(2.876 2.914)" fill="#fed402"/>
    <g id="XMLID_269_" transform="translate(10.787 15.389)">
      <path id="Path-2" data-name="Path" d="M16.47,0a8.3,8.3,0,0,1-.078,16.6H5.724A5.739,5.739,0,0,1,5.663,5.122a5.578,5.578,0,0,1,2.4.538.549.549,0,0,0,.752-.307A8.2,8.2,0,0,1,16.47,0Z" transform="translate(0.041 0.01)" fill="#f9f3f1"/>
    </g>
    <path id="Path-3" data-name="Path" d="M2.582,12.647A5.7,5.7,0,0,1,8.244,6.889a5.578,5.578,0,0,1,2.4.538.549.549,0,0,0,.752-.307,8.2,8.2,0,0,1,7.658-5.353,8.07,8.07,0,0,1,3.206.66A8.11,8.11,0,0,0,16.47,0,8.2,8.2,0,0,0,8.812,5.353a.549.549,0,0,1-.752.307,5.578,5.578,0,0,0-2.4-.538A5.741,5.741,0,0,0,3.915,16.3a5.713,5.713,0,0,1-1.334-3.657Z" transform="translate(10.828 15.399)" fill="#f3eae6"/>
  </g>
</svg>
