<svg xmlns="http://www.w3.org/2000/svg" width="192" height="194" viewBox="0 0 192 194">
  <g id="Sunny" transform="translate(-0.583)">
    <path id="Path" d="M0,23.873A43.922,43.922,0,0,1,83,43.55,43.435,43.435,0,0,1,63.151,80H0Z" transform="translate(81.583 28)" fill="#ffce69"/>
    <path id="Path-2" data-name="Path" d="M0,23.873A43.922,43.922,0,0,1,83,43.55,43.435,43.435,0,0,1,63.151,80H0Z" transform="translate(81.583 28)" fill="#ffce69"/>
    <path id="Path-3" data-name="Path" d="M4.455,0A44.037,44.037,0,0,0,0,.229,43.554,43.554,0,0,1,39.058,43.55,43.513,43.513,0,0,1,19.351,80h8.942A43.555,43.555,0,0,0,4.455,0Z" transform="translate(115.583 28)" fill="#ffbd61"/>
    <path id="Path-4" data-name="Path" d="M31.522,31.333a31.522,31.522,0,1,1,63.044.393,12.177,12.177,0,0,0,12.213,12.14h12.629c13.859,0,25.411,10.958,25.591,24.734A25.14,25.14,0,0,1,119.783,94H31.918C14.536,94,.13,80.181,0,62.9A31.426,31.426,0,0,1,31.522,31.333Z" transform="translate(0.583 47)" fill="#f9f5f3"/>
    <g id="Group" transform="translate(58.583 46)">
      <path id="Path-5" data-name="Path" d="M27.028,31.966A12.233,12.233,0,0,0,39.261,44.2h9.078A12.233,12.233,0,0,1,36.106,31.966C36.106,14.883,22.688.587,5.612.017A31.884,31.884,0,0,0,0,.332,31.9,31.9,0,0,1,27.028,31.966Z" transform="translate(0.166 0.231)" fill="#f9eae0"/>
      <path id="Path-6" data-name="Path" d="M9.078,0H0A25.5,25.5,0,0,1,25.634,24.921,25.258,25.258,0,0,1,.377,50.513H9.454A25.258,25.258,0,0,0,34.712,24.921,25.5,25.5,0,0,0,9.078,0Z" transform="translate(52.078 44.429)" fill="#f9eae0"/>
    </g>
    <path id="Path-7" data-name="Path" d="M3,18a2.907,2.907,0,0,1-3-2.8V2.8A2.907,2.907,0,0,1,3,0,2.907,2.907,0,0,1,6,2.8V15.2A2.907,2.907,0,0,1,3,18Z" transform="translate(117.583)" fill="#ffbd61"/>
    <path id="Path-8" data-name="Path" d="M11.268,14a2.725,2.725,0,0,1-1.932-.8L.8,4.664A2.732,2.732,0,0,1,4.664.8L13.2,9.335A2.733,2.733,0,0,1,11.268,14Z" transform="translate(68.583 21)" fill="#ffbd61"/>
    <path id="Path-9" data-name="Path" d="M11.268,14a2.725,2.725,0,0,1-1.932-.8L.8,4.664A2.732,2.732,0,0,1,4.664.8L13.2,9.336A2.732,2.732,0,0,1,11.268,14Z" transform="translate(157.583 109)" fill="#ffbd61"/>
    <path id="Path-10" data-name="Path" d="M15.2,6H2.8A2.907,2.907,0,0,1,0,3,2.907,2.907,0,0,1,2.8,0H15.2A2.907,2.907,0,0,1,18,3,2.907,2.907,0,0,1,15.2,6Z" transform="translate(174.583 69)" fill="#ffbd61"/>
    <path id="Path-11" data-name="Path" d="M2.733,14A2.732,2.732,0,0,1,.8,9.336L9.336.8A2.732,2.732,0,0,1,13.2,4.664L4.664,13.2a2.725,2.725,0,0,1-1.932.8Z" transform="translate(157.583 21)" fill="#ffbd61"/>
    <path id="Path-12" data-name="Path" d="M2.849,18a2.878,2.878,0,0,1-1.273-.3A2.784,2.784,0,0,1,.3,13.94L6.6,1.551A2.872,2.872,0,0,1,10.424.3,2.784,2.784,0,0,1,11.7,4.06L5.4,16.449A2.856,2.856,0,0,1,2.849,18Z" transform="translate(49.583 151)" fill="#a0c8ff"/>
    <path id="Path-13" data-name="Path" d="M2.849,18a2.882,2.882,0,0,1-1.273-.3A2.784,2.784,0,0,1,.3,13.94L6.6,1.55A2.873,2.873,0,0,1,10.424.3,2.784,2.784,0,0,1,11.7,4.06L5.4,16.449A2.856,2.856,0,0,1,2.849,18Z" transform="translate(79.583 151)" fill="#a0c8ff"/>
    <path id="Path-14" data-name="Path" d="M2.849,18a2.878,2.878,0,0,1-1.273-.3A2.784,2.784,0,0,1,.3,13.94L6.6,1.551A2.872,2.872,0,0,1,10.424.3,2.783,2.783,0,0,1,11.7,4.06L5.4,16.449A2.856,2.856,0,0,1,2.849,18Z" transform="translate(92.583 176)" fill="#a0c8ff"/>
    <path id="Path-15" data-name="Path" d="M2.849,18a2.878,2.878,0,0,1-1.273-.3A2.784,2.784,0,0,1,.3,13.94L6.6,1.551A2.872,2.872,0,0,1,10.424.3,2.784,2.784,0,0,1,11.7,4.06L5.4,16.449A2.857,2.857,0,0,1,2.849,18Z" transform="translate(61.583 176)" fill="#a0c8ff"/>
    <path id="Path-16" data-name="Path" d="M2.849,18a2.878,2.878,0,0,1-1.273-.3A2.784,2.784,0,0,1,.3,13.94L6.6,1.551A2.872,2.872,0,0,1,10.424.3,2.784,2.784,0,0,1,11.7,4.06L5.4,16.449A2.856,2.856,0,0,1,2.849,18Z" transform="translate(110.583 151)" fill="#a0c8ff"/>
  </g>
</svg>
